<?xml version="1.0" standalone="no"?>
<!DOCTYPE svg>
<svg version="1.0" xmlns="http://www.w3.org/2000/svg"
 width="210.000000pt" height="210.000000pt" viewBox="0 0 210.000000 210.000000"
 preserveAspectRatio="xMidYMid meet">

<g transform="translate(0.000000,210.000000) scale(0.100000,-0.100000)" stroke="none">
<path d="M1024 1855 c-11 -27 6 -34 114 -41 99 -7 102 -6 102 14 0 22 -13 25
-142 38 -58 5 -69 4 -74 -11z"/>
<path d="M790 1827 c-75 -23 -106 -37 -108 -50 -6 -29 19 -28 128 6 84 26 105
37 105 52 0 10 -4 20 -10 21 -5 2 -57 -12 -115 -29z"/>
<path d="M1341 1797 c-14 -18 3 -33 100 -86 58 -31 78 -38 87 -29 7 7 12 15
12 19 0 7 -171 109 -182 109 -3 0 -11 -6 -17 -13z"/>
<path d="M498 1653 c-75 -64 -98 -103 -62 -103 22 0 169 130 169 149 0 33 -33
19 -107 -46z"/>
<path d="M1595 1619 c-4 -6 6 -27 22 -47 16 -20 42 -54 59 -74 31 -40 51 -48
60 -23 4 9 -16 42 -50 85 -55 67 -77 82 -91 59z"/>
<path d="M1000 1593 c0 -10 23 -184 51 -386 28 -203 49 -370 47 -373 -3 -2
-21 3 -41 11 -42 17 -123 20 -164 4 -63 -23 -113 -95 -113 -161 0 -53 37 -115
83 -142 60 -34 108 -40 171 -22 63 19 121 76 131 129 4 21 -13 175 -44 393
-28 198 -51 366 -51 374 0 8 12 2 33 -17 17 -18 58 -44 89 -58 32 -15 65 -36
73 -48 20 -28 19 -94 -2 -173 -15 -56 -16 -66 -3 -74 32 -20 59 43 80 187 23
150 -15 220 -142 262 -41 14 -81 37 -115 66 -54 47 -83 57 -83 28z"/>
<path d="M296 1380 c-37 -79 -41 -110 -13 -110 17 0 92 163 83 179 -16 25 -35
6 -70 -69z"/>
<path d="M1755 1398 c-9 -23 50 -183 68 -186 29 -6 28 20 -1 108 -19 56 -34
86 -45 88 -10 2 -19 -3 -22 -10z"/>
<path d="M237 1153 c-9 -8 -9 -206 -1 -227 3 -9 15 -16 25 -16 18 0 19 9 19
113 0 75 -4 117 -12 125 -14 14 -22 15 -31 5z"/>
<path d="M1833 1143 c-9 -3 -13 -33 -13 -103 0 -100 8 -122 35 -100 11 9 15
36 15 105 0 93 -6 109 -37 98z"/>
<path d="M1805 861 c-3 -6 -17 -40 -31 -77 -25 -67 -22 -93 9 -81 15 6 70 145
61 158 -7 12 -31 11 -39 0z"/>
<path d="M260 818 c0 -7 18 -55 41 -105 31 -69 47 -93 60 -93 27 0 23 23 -20
120 -28 66 -42 86 -59 88 -13 2 -22 -2 -22 -10z"/>
<path d="M1657 574 c-48 -61 -56 -78 -47 -90 7 -7 15 -14 19 -14 15 0 122 152
117 165 -11 29 -32 14 -89 -61z"/>
<path d="M410 542 c0 -22 110 -132 132 -132 37 0 28 25 -33 86 -63 64 -99 80
-99 46z"/>
<path d="M1437 383 c-69 -39 -97 -61 -97 -74 0 -11 7 -19 16 -19 20 0 204 108
204 119 0 5 -6 13 -13 19 -10 8 -37 -3 -110 -45z"/>
<path d="M653 354 c-3 -8 -2 -19 3 -24 11 -11 191 -80 209 -80 21 0 29 20 14
34 -12 11 -199 86 -214 86 -3 0 -8 -7 -12 -16z"/>
<path d="M1140 283 c-136 -13 -140 -14 -140 -35 0 -20 3 -21 112 -14 116 7
135 13 125 40 -6 16 -19 17 -97 9z"/>
</g>
</svg>
